<?xml version="1.0" encoding="UTF-8"?>
<svg id="Layer_1" data-name="Layer 1" xmlns="http://www.w3.org/2000/svg" xmlns:xlink="http://www.w3.org/1999/xlink" viewBox="0 0 1080 1080">
  <defs>
    <style>
      .cls-1 {
        fill: url(#linear-gradient);
        stroke-width: 0px;
      }
    </style>
    <linearGradient id="linear-gradient" x1="540" y1="892.79" x2="540" y2="187.21" gradientUnits="userSpaceOnUse">
      <stop offset="0" stop-color="#d09050"/>
      <stop offset="1" stop-color="#e7d1a4"/>
    </linearGradient>
  </defs>
  <path class="cls-1" d="m555.32,863.28h8.7v9.94h-64.61v-9.94h8.7l-.63-304.57c-22.47-5.29-36.79-9.7-52.86-13.22-38.84-8.49-62.11-15.86-99.12-17.18-60.22-2.15-179.98,51.31-146.7,206.17,15.2,70.7,68.36,107.18,101.41,120.67,54.26,22.16,109.07,14.1,109.07,14.1,0,0-4.97,15.22-24.85,20.35-70.04,18.08-187.61-40.81-201.44-180.4-7.25-73.15,26.39-145.22,76.61-180.9,86.35-61.36,149.68-40.26,318.66,9.44,160.79,47.29,175.42-19.14,175.42-19.14,0,0-1.79,25.12-32.3,46.65-24.85,17.54-67.02,24.92-115.79,17.22-19.86-3.14-40.1-7.31-60.26-11.94v292.74Zm332.49-207.46c-2.83,67.89-36.65,138.21-96.91,176.44-73.96,46.93-209.36,37.27-209.36,37.27l-.07-36.59-.32-182.09h115.96v58.86l18.48,18.82c.86.93.21,3.75-1.06,3.75l-42.16-1.32c-1.27,0-1.92-1.51-1.06-2.43l18.49-18.82v-48.92h-61.04l1.32,188.14c15.88.6,32.86-.12,48.86-2.14.78-8.78,1.56-17.58,2.36-26.51-2.2-.37-4.09-.69-6.1-1.04-1.92,6.47-3.78,12.68-5.61,18.9-.45,1.53-1.05,2.59-2.99,1.57.07-.57.08-1.14.21-1.69,1.43-6.14,2.94-12.25,4.25-18.41.22-1.04,0-2.62-.66-3.34-5.64-6.03-8.94-13.21-10.25-21.24-.7-4.33-.85-8.81,2.37-13.55-.43,5.5,2.6,7.63,6.35,9.17,2.82,1.16,4.54,3.25,5.63,6.09,1.16,3.03,2.47,6.02,3.98,8.88,2.87,5.45,7.41,8.4,13.69,7.99,5.59-.36,11.18-.93,16.76-1.53,2.14-.23,4.37-.5,6.33-1.31,1.14-.47,2.4-1.96,2.54-3.12.1-.84-1.41-2.11-2.46-2.78-1.04-.66-2.39-.84-3.63-1.14-9.53-2.31-19.2-1.97-28.82-1.07-3.72.35-5.39-.88-6.22-4.25-1.17-4.71-3.94-8.08-8.63-9.71-.46-.16-.87-.47-1.28-.74-3.59-2.37-4-7.13-.6-9.73,1.75-1.34,3.91-2.37,6.04-2.95,11.51-3.17,22.05-1.09,31.42,6.36,4.88,3.88,10.26,6.57,16.46,7.5,1.85.28,3.71.52,5.54.87,1.94.38,3.07,1.44,3.21,3.61.6,9.26-6.08,20.76-14.7,24.73,1.84,6.52,3.65,12.96,5.46,19.37.47-.17.97-.33,1.44-.5,36.42-13.6,60.64-34.63,79.85-62.39,12.8-18.51,37.68-62.04,37.68-124.28,0-46.26-9.91-68.54-18.5-84.58-19.82-37-45.53-51.19-59.47-59.47-17.24-10.24-47.61-20.93-89.21-24.45-60.42-5.12-107.71,8.59-185.38-1.61-41.03-5.39-179.95-51.27-155.44-188.47,10.43-58.37,66.75-99.28,122.1-103.97,38.99-3.3,66.74,3.3,85.24,27.09,10.96,14.09-1.32,23.79-12.72,13.62-1.52-1.35-22.96-24.2-71.2-26.18-9.95-.41-35.03.69-56.17,12.56-19.7,11.05-35.68,28.57-41,38.14-.01.03-.03.04-.04.07-10.44,17.18-16.45,37.35-16.45,58.93,0,7.89.81,15.59,2.34,23.02h0c13.1,83.52,109.04,145.55,223.65,131.6,93.53-11.38,114.98-15.86,161.23-7.93,45.75,7.85,79.29,22.47,108.29,53.26,19.14,20.33,55.1,69.41,52,143.63Zm-205.89,190.57c12.6-1.73,24.5-4.26,34.65-7.6-2.01-6.42-4.07-12.85-6.16-19.4-3.18.54-6.13,1.04-9.19,1.56.55,5.67,1.07,11.01,1.59,16.35-2.12.76-2.98.35-3.26-1.72-.64-4.84-1.51-9.64-2.29-14.52h-11.56c-.26,1.63-.51,3.09-.72,4.55-1.02,6.93-2.05,13.86-3.05,20.8Z"/>
</svg>